<svg width="125" height="77" viewBox="0 0 125 77" fill="none" xmlns="http://www.w3.org/2000/svg">
<path d="M28.9024 30.4146H30.0732V31.5854H28.9024V30.4146ZM27.7317 30.4146H28.9024V31.5854H27.7317V30.4146ZM27.7317 31.5854H28.9024V32.7561H27.7317V31.5854ZM27.7317 32.7561H28.9024V33.9268H27.7317V32.7561ZM27.7317 33.9268H28.9024V35.0976H27.7317V33.9268ZM28.9024 33.9268H30.0732V35.0976H28.9024V33.9268ZM28.9024 35.0976H30.0732V36.2683H28.9024V35.0976ZM28.9024 32.7561H30.0732V33.9268H28.9024V32.7561ZM28.9024 31.5854H30.0732V32.7561H28.9024V31.5854ZM27.7317 35.0976H28.9024V36.2683H27.7317V35.0976ZM26.561 35.0976H27.7317V36.2683H26.561V35.0976ZM26.561 33.9268H27.7317V35.0976H26.561V33.9268ZM26.561 32.7561H27.7317V33.9268H26.561V32.7561ZM26.561 31.5854H27.7317V32.7561H26.561V31.5854ZM25.3902 31.5854H26.561V32.7561H25.3902V31.5854ZM25.3902 32.7561H26.561V33.9268H25.3902V32.7561ZM25.3902 33.9268H26.561V35.0976H25.3902V33.9268ZM25.3902 35.0976H26.561V36.2683H25.3902V35.0976ZM25.3902 36.2683H26.561V37.439H25.3902V36.2683ZM26.561 36.2683H27.7317V37.439H26.561V36.2683ZM24.2195 35.0976H25.3902V36.2683H24.2195V35.0976ZM24.2195 33.9268H25.3902V35.0976H24.2195V33.9268ZM24.2195 32.7561H25.3902V33.9268H24.2195V32.7561ZM23.0488 32.7561H24.2195V33.9268H23.0488V32.7561ZM23.0488 33.9268H24.2195V35.0976H23.0488V33.9268ZM23.0488 35.0976H24.2195V36.2683H23.0488V35.0976ZM23.0488 36.2683H24.2195V37.439H23.0488V36.2683ZM24.2195 36.2683H25.3902V37.439H24.2195V36.2683ZM24.2195 37.439H25.3902V38.6098H24.2195V37.439ZM23.0488 37.439H24.2195V38.6098H23.0488V37.439ZM21.878 35.0976H23.0488V36.2683H21.878V35.0976ZM21.878 33.9268H23.0488V35.0976H21.878V33.9268ZM20.7073 33.9268H21.878V35.0976H20.7073V33.9268ZM20.7073 35.0976H21.878V36.2683H20.7073V35.0976ZM20.7073 36.2683H21.878V37.439H20.7073V36.2683ZM20.7073 37.439H21.878V38.6098H20.7073V37.439ZM20.7073 38.6098H21.878V39.7805H20.7073V38.6098ZM21.878 38.6098H23.0488V39.7805H21.878V38.6098ZM21.878 37.439H23.0488V38.6098H21.878V37.439ZM21.878 36.2683H23.0488V37.439H21.878V36.2683ZM19.5366 37.439H20.7073V38.6098H19.5366V37.439ZM19.5366 38.6098H20.7073V39.7805H19.5366V38.6098ZM18.3659 38.6098H19.5366V39.7805H18.3659V38.6098ZM18.3659 37.439H19.5366V38.6098H18.3659V37.439ZM18.3659 36.2683H19.5366V37.439H18.3659V36.2683ZM18.3659 35.0976H19.5366V36.2683H18.3659V35.0976ZM19.5366 35.0976H20.7073V36.2683H19.5366V35.0976ZM19.5366 36.2683H20.7073V37.439H19.5366V36.2683ZM19.5366 39.7805H20.7073V40.9512H19.5366V39.7805ZM19.5366 40.9512H20.7073V42.122H19.5366V40.9512ZM18.3659 40.9512H19.5366V42.122H18.3659V40.9512ZM18.3659 42.122H19.5366V43.2927H18.3659V42.122ZM18.3659 39.7805H19.5366V40.9512H18.3659V39.7805ZM19.5366 42.122H20.7073V43.2927H19.5366V42.122ZM20.7073 42.122H21.878V43.2927H20.7073V42.122ZM24.2195 46.8049H25.3902V47.9756H24.2195V46.8049ZM23.0488 46.8049H24.2195V47.9756H23.0488V46.8049ZM23.0488 45.6341H24.2195V46.8049H23.0488V45.6341ZM21.878 44.4634H23.0488V45.6341H21.878V44.4634ZM21.878 43.2927H23.0488V44.4634H21.878V43.2927ZM21.878 42.122H23.0488V43.2927H21.878V42.122ZM23.0488 44.4634H24.2195V45.6341H23.0488V44.4634ZM24.2195 45.6341H25.3902V46.8049H24.2195V45.6341ZM24.2195 44.4634H25.3902V45.6341H24.2195V44.4634ZM24.2195 43.2927H25.3902V44.4634H24.2195V43.2927ZM23.0488 43.2927H24.2195V44.4634H23.0488V43.2927ZM25.3902 45.6341H26.561V46.8049H25.3902V45.6341ZM25.3902 44.4634H26.561V45.6341H25.3902V44.4634ZM26.561 44.4634H27.7317V45.6341H26.561V44.4634ZM26.561 45.6341H27.7317V46.8049H26.561V45.6341ZM27.7317 45.6341H28.9024V46.8049H27.7317V45.6341ZM27.7317 46.8049H28.9024V47.9756H27.7317V46.8049ZM28.9024 46.8049H30.0732V47.9756H28.9024V46.8049ZM28.9024 45.6341H30.0732V46.8049H28.9024V45.6341ZM28.9024 47.9756H30.0732V49.1463H28.9024V47.9756ZM28.9024 49.1463H30.0732V50.3171H28.9024V49.1463ZM27.7317 49.1463H28.9024V50.3171H27.7317V49.1463ZM27.7317 50.3171H28.9024V51.4878H27.7317V50.3171ZM28.9024 50.3171H30.0732V51.4878H28.9024V50.3171ZM26.561 49.1463H27.7317V50.3171H26.561V49.1463ZM25.3902 49.1463H26.561V50.3171H25.3902V49.1463ZM25.3902 47.9756H26.561V49.1463H25.3902V47.9756ZM26.561 47.9756H27.7317V49.1463H26.561V47.9756ZM27.7317 47.9756H28.9024V49.1463H27.7317V47.9756ZM26.561 46.8049H27.7317V47.9756H26.561V46.8049ZM24.2195 47.9756H25.3902V49.1463H24.2195V47.9756ZM25.3902 46.8049H26.561V47.9756H25.3902V46.8049ZM23.0488 47.9756H24.2195V49.1463H23.0488V47.9756ZM21.878 46.8049H23.0488V47.9756H21.878V46.8049ZM20.7073 46.8049H21.878V47.9756H20.7073V46.8049ZM20.7073 45.6341H21.878V46.8049H20.7073V45.6341ZM21.878 45.6341H23.0488V46.8049H21.878V45.6341ZM19.5366 45.6341H20.7073V46.8049H19.5366V45.6341ZM18.3659 45.6341H19.5366V46.8049H18.3659V45.6341ZM18.3659 44.4634H19.5366V45.6341H18.3659V44.4634ZM18.3659 43.2927H19.5366V44.4634H18.3659V43.2927ZM19.5366 43.2927H20.7073V44.4634H19.5366V43.2927ZM20.7073 43.2927H21.878V44.4634H20.7073V43.2927ZM20.7073 44.4634H21.878V45.6341H20.7073V44.4634ZM19.5366 44.4634H20.7073V45.6341H19.5366V44.4634ZM17.1951 36.2683H18.3659V37.439H17.1951V36.2683ZM16.0244 36.2683H17.1951V37.439H16.0244V36.2683ZM16.0244 37.439H17.1951V38.6098H16.0244V37.439ZM14.8537 37.439H16.0244V38.6098H14.8537V37.439ZM13.6829 37.439H14.8537V38.6098H13.6829V37.439ZM13.6829 38.6098H14.8537V39.7805H13.6829V38.6098ZM12.5122 38.6098H13.6829V39.7805H12.5122V38.6098ZM11.3415 38.6098H12.5122V39.7805H11.3415V38.6098ZM11.3415 39.7805H12.5122V40.9512H11.3415V39.7805ZM11.3415 40.9512H12.5122V42.122H11.3415V40.9512ZM11.3415 42.122H12.5122V43.2927H11.3415V42.122ZM12.5122 42.122H13.6829V43.2927H12.5122V42.122ZM12.5122 40.9512H13.6829V42.122H12.5122V40.9512ZM12.5122 39.7805H13.6829V40.9512H12.5122V39.7805ZM13.6829 40.9512H14.8537V42.122H13.6829V40.9512ZM13.6829 42.122H14.8537V43.2927H13.6829V42.122ZM13.6829 43.2927H14.8537V44.4634H13.6829V43.2927ZM14.8537 43.2927H16.0244V44.4634H14.8537V43.2927ZM16.0244 43.2927H17.1951V44.4634H16.0244V43.2927ZM16.0244 44.4634H17.1951V45.6341H16.0244V44.4634ZM17.1951 44.4634H18.3659V45.6341H17.1951V44.4634ZM17.1951 43.2927H18.3659V44.4634H17.1951V43.2927ZM17.1951 42.122H18.3659V43.2927H17.1951V42.122ZM16.0244 42.122H17.1951V43.2927H16.0244V42.122ZM14.8537 42.122H16.0244V43.2927H14.8537V42.122ZM14.8537 40.9512H16.0244V42.122H14.8537V40.9512ZM13.6829 39.7805H14.8537V40.9512H13.6829V39.7805ZM14.8537 39.7805H16.0244V40.9512H14.8537V39.7805ZM16.0244 39.7805H17.1951V40.9512H16.0244V39.7805ZM16.0244 40.9512H17.1951V42.122H16.0244V40.9512ZM17.1951 39.7805H18.3659V40.9512H17.1951V39.7805ZM17.1951 38.6098H18.3659V39.7805H17.1951V38.6098ZM17.1951 37.439H18.3659V38.6098H17.1951V37.439ZM16.0244 38.6098H17.1951V39.7805H16.0244V38.6098ZM14.8537 38.6098H16.0244V39.7805H14.8537V38.6098ZM17.1951 40.9512H18.3659V42.122H17.1951V40.9512ZM35.9497 49.1463V50.3171H34.779V49.1463H35.9497ZM35.9497 47.9756V49.1463H34.779V47.9756H35.9497ZM35.9497 46.8049V47.9756H34.779V46.8049H35.9497ZM35.9497 45.6341V46.8049H34.779V45.6341H35.9497ZM35.9497 44.4634V45.6341H34.779V44.4634H35.9497ZM35.9497 43.2927V44.4634H34.779V43.2927H35.9497ZM35.9497 42.122V43.2927H34.779V42.122H35.9497ZM35.9497 40.9512V42.122H34.779V40.9512H35.9497ZM35.9497 39.7805V40.9512H34.779V39.7805H35.9497ZM35.9497 38.6098V39.7805H34.779V38.6098H35.9497ZM35.9497 37.439V38.6098H34.779V37.439H35.9497ZM37.1204 37.439V38.6098H35.9497V37.439H37.1204ZM37.1204 38.6098V39.7805H35.9497V38.6098H37.1204ZM37.1204 39.7805V40.9512H35.9497V39.7805H37.1204ZM37.1204 40.9512V42.122H35.9497V40.9512H37.1204ZM37.1204 42.122V43.2927H35.9497V42.122H37.1204ZM37.1204 43.2927V44.4634H35.9497V43.2927H37.1204ZM37.1204 44.4634V45.6341H35.9497V44.4634H37.1204ZM38.2912 45.6341V46.8049H37.1204V45.6341H38.2912ZM38.2912 46.8049V47.9756H37.1204V46.8049H38.2912ZM38.2912 47.9756V49.1463H37.1204V47.9756H38.2912ZM38.2912 49.1463V50.3171H37.1204V49.1463H38.2912ZM38.2912 50.3171V51.4878H37.1204V50.3171H38.2912ZM38.2912 51.4878V52.6585H37.1204V51.4878H38.2912ZM38.2912 52.6585V53.8293H37.1204V52.6585H38.2912ZM40.6326 53.8293V55H39.4619V53.8293H40.6326ZM40.6326 52.6585V53.8293H39.4619V52.6585H40.6326ZM40.6326 51.4878V52.6585H39.4619V51.4878H40.6326ZM40.6326 50.3171V51.4878H39.4619V50.3171H40.6326ZM40.6326 49.1463V50.3171H39.4619V49.1463H40.6326ZM40.6326 47.9756V49.1463H39.4619V47.9756H40.6326ZM40.6326 46.8049V47.9756H39.4619V46.8049H40.6326ZM40.6326 45.6341V46.8049H39.4619V45.6341H40.6326ZM39.4619 45.6341V46.8049H38.2912V45.6341H39.4619ZM39.4619 44.4634V45.6341H38.2912V44.4634H39.4619ZM39.4619 46.8049V47.9756H38.2912V46.8049H39.4619ZM39.4619 47.9756V49.1463H38.2912V47.9756H39.4619ZM39.4619 49.1463V50.3171H38.2912V49.1463H39.4619ZM39.4619 50.3171V51.4878H38.2912V50.3171H39.4619ZM39.4619 51.4878V52.6585H38.2912V51.4878H39.4619ZM39.4619 52.6585V53.8293H38.2912V52.6585H39.4619ZM37.1204 51.4878V52.6585H35.9497V51.4878H37.1204ZM37.1204 50.3171V51.4878H35.9497V50.3171H37.1204ZM37.1204 49.1463V50.3171H35.9497V49.1463H37.1204ZM37.1204 47.9756V49.1463H35.9497V47.9756H37.1204ZM37.1204 46.8049V47.9756H35.9497V46.8049H37.1204ZM37.1204 45.6341V46.8049H35.9497V45.6341H37.1204ZM35.9497 36.2683V37.439H34.779V36.2683H35.9497ZM39.4619 36.2683V37.439H38.2912V36.2683H39.4619ZM39.4619 37.439V38.6098H38.2912V37.439H39.4619ZM39.4619 38.6098V39.7805H38.2912V38.6098H39.4619ZM39.4619 39.7805V40.9512H38.2912V39.7805H39.4619ZM39.4619 40.9512V42.122H38.2912V40.9512H39.4619ZM40.6326 42.122V43.2927H39.4619V42.122H40.6326ZM40.6326 43.2927V44.4634H39.4619V43.2927H40.6326ZM40.6326 44.4634V45.6341H39.4619V44.4634H40.6326ZM40.6326 40.9512V42.122H39.4619V40.9512H40.6326ZM40.6326 39.7805V40.9512H39.4619V39.7805H40.6326ZM40.6326 38.6098V39.7805H39.4619V38.6098H40.6326ZM40.6326 37.439V38.6098H39.4619V37.439H40.6326ZM40.6326 36.2683V37.439H39.4619V36.2683H40.6326ZM37.1204 36.2683V37.439H35.9497V36.2683H37.1204ZM38.2912 36.2683V37.439H37.1204V36.2683H38.2912ZM38.2912 37.439V38.6098H37.1204V37.439H38.2912ZM38.2912 38.6098V39.7805H37.1204V38.6098H38.2912ZM38.2912 39.7805V40.9512H37.1204V39.7805H38.2912ZM38.2912 40.9512V42.122H37.1204V40.9512H38.2912ZM38.2912 42.122V43.2927H37.1204V42.122H38.2912ZM38.2912 43.2927V44.4634H37.1204V43.2927H38.2912ZM38.2912 44.4634V45.6341H37.1204V44.4634H38.2912ZM39.4619 43.2927V44.4634H38.2912V43.2927H39.4619ZM39.4619 42.122V43.2927H38.2912V42.122H39.4619ZM49.9985 53.8293V55H48.8277V53.8293H49.9985ZM49.9985 52.6585V53.8293H48.8277V52.6585H49.9985ZM49.9985 51.4878V52.6585H48.8277V51.4878H49.9985ZM49.9985 50.3171V51.4878H48.8277V50.3171H49.9985ZM49.9985 49.1463V50.3171H48.8277V49.1463H49.9985ZM49.9985 47.9756V49.1463H48.8277V47.9756H49.9985ZM49.9985 46.8049V47.9756H48.8277V46.8049H49.9985ZM49.9985 45.6341V46.8049H48.8277V45.6341H49.9985ZM49.9985 44.4634V45.6341H48.8277V44.4634H49.9985ZM49.9985 43.2927V44.4634H48.8277V43.2927H49.9985ZM49.9985 42.122V43.2927H48.8277V42.122H49.9985ZM49.9985 40.9512V42.122H48.8277V40.9512H49.9985ZM49.9985 39.7805V40.9512H48.8277V39.7805H49.9985ZM49.9985 38.6098V39.7805H48.8277V38.6098H49.9985ZM49.9985 37.439V38.6098H48.8277V37.439H49.9985ZM51.1692 37.439V38.6098H49.9985V37.439H51.1692ZM51.1692 38.6098V39.7805H49.9985V38.6098H51.1692ZM51.1692 39.7805V40.9512H49.9985V39.7805H51.1692ZM51.1692 40.9512V42.122H49.9985V40.9512H51.1692ZM51.1692 42.122V43.2927H49.9985V42.122H51.1692ZM51.1692 43.2927V44.4634H49.9985V43.2927H51.1692ZM51.1692 44.4634V45.6341H49.9985V44.4634H51.1692ZM52.3399 45.6341V46.8049H51.1692V45.6341H52.3399ZM52.3399 46.8049V47.9756H51.1692V46.8049H52.3399ZM52.3399 47.9756V49.1463H51.1692V47.9756H52.3399ZM52.3399 49.1463V50.3171H51.1692V49.1463H52.3399ZM52.3399 50.3171V51.4878H51.1692V50.3171H52.3399ZM52.3399 51.4878V52.6585H51.1692V51.4878H52.3399ZM52.3399 52.6585V53.8293H51.1692V52.6585H52.3399ZM54.6814 49.1463V50.3171H53.5107V49.1463H54.6814ZM54.6814 47.9756V49.1463H53.5107V47.9756H54.6814ZM54.6814 46.8049V47.9756H53.5107V46.8049H54.6814ZM54.6814 45.6341V46.8049H53.5107V45.6341H54.6814ZM53.5107 45.6341V46.8049H52.3399V45.6341H53.5107ZM53.5107 44.4634V45.6341H52.3399V44.4634H53.5107ZM53.5107 46.8049V47.9756H52.3399V46.8049H53.5107ZM53.5107 47.9756V49.1463H52.3399V47.9756H53.5107ZM53.5107 49.1463V50.3171H52.3399V49.1463H53.5107ZM53.5107 50.3171V51.4878H52.3399V50.3171H53.5107ZM53.5107 51.4878V52.6585H52.3399V51.4878H53.5107ZM51.1692 52.6585V53.8293H49.9985V52.6585H51.1692ZM51.1692 51.4878V52.6585H49.9985V51.4878H51.1692ZM51.1692 50.3171V51.4878H49.9985V50.3171H51.1692ZM51.1692 49.1463V50.3171H49.9985V49.1463H51.1692ZM51.1692 47.9756V49.1463H49.9985V47.9756H51.1692ZM51.1692 46.8049V47.9756H49.9985V46.8049H51.1692ZM51.1692 45.6341V46.8049H49.9985V45.6341H51.1692ZM49.9985 36.2683V37.439H48.8277V36.2683H49.9985ZM53.5107 36.2683V37.439H52.3399V36.2683H53.5107ZM53.5107 37.439V38.6098H52.3399V37.439H53.5107ZM53.5107 38.6098V39.7805H52.3399V38.6098H53.5107ZM53.5107 39.7805V40.9512H52.3399V39.7805H53.5107ZM53.5107 40.9512V42.122H52.3399V40.9512H53.5107ZM54.6814 42.122V43.2927H53.5107V42.122H54.6814ZM54.6814 43.2927V44.4634H53.5107V43.2927H54.6814ZM54.6814 44.4634V45.6341H53.5107V44.4634H54.6814ZM54.6814 40.9512V42.122H53.5107V40.9512H54.6814ZM54.6814 39.7805V40.9512H53.5107V39.7805H54.6814ZM54.6814 38.6098V39.7805H53.5107V38.6098H54.6814ZM54.6814 37.439V38.6098H53.5107V37.439H54.6814ZM54.6814 36.2683V37.439H53.5107V36.2683H54.6814ZM51.1692 36.2683V37.439H49.9985V36.2683H51.1692ZM52.3399 36.2683V37.439H51.1692V36.2683H52.3399ZM52.3399 37.439V38.6098H51.1692V37.439H52.3399ZM52.3399 38.6098V39.7805H51.1692V38.6098H52.3399ZM52.3399 39.7805V40.9512H51.1692V39.7805H52.3399ZM52.3399 40.9512V42.122H51.1692V40.9512H52.3399ZM52.3399 42.122V43.2927H51.1692V42.122H52.3399ZM52.3399 43.2927V44.4634H51.1692V43.2927H52.3399ZM52.3399 44.4634V45.6341H51.1692V44.4634H52.3399ZM53.5107 43.2927V44.4634H52.3399V43.2927H53.5107ZM53.5107 42.122V43.2927H52.3399V42.122H53.5107ZM41.8034 53.8293V55H40.6326V53.8293H41.8034ZM42.9741 53.8293V55H41.8034V53.8293H42.9741ZM45.3155 53.8293V55H44.1448V53.8293H45.3155ZM46.4863 53.8293V55H45.3155V53.8293H46.4863ZM47.657 53.8293V55H46.4863V53.8293H47.657ZM48.8277 53.8293V55H47.657V53.8293H48.8277ZM48.8277 52.6585V53.8293H47.657V52.6585H48.8277ZM47.657 52.6585V53.8293H46.4863V52.6585H47.657ZM46.4863 52.6585V53.8293H45.3155V52.6585H46.4863ZM45.3155 52.6585V53.8293H44.1448V52.6585H45.3155ZM42.9741 52.6585V53.8293H41.8034V52.6585H42.9741ZM41.8034 52.6585V53.8293H40.6326V52.6585H41.8034ZM41.8034 51.4878V52.6585H40.6326V51.4878H41.8034ZM42.9741 51.4878V52.6585H41.8034V51.4878H42.9741ZM45.3155 51.4878V52.6585H44.1448V51.4878H45.3155ZM46.4863 51.4878V52.6585H45.3155V51.4878H46.4863ZM47.657 51.4878V52.6585H46.4863V51.4878H47.657ZM48.8277 51.4878V52.6585H47.657V51.4878H48.8277ZM48.8277 50.3171V51.4878H47.657V50.3171H48.8277ZM47.657 50.3171V51.4878H46.4863V50.3171H47.657ZM46.4863 50.3171V51.4878H45.3155V50.3171H46.4863ZM45.3155 50.3171V51.4878H44.1448V50.3171H45.3155ZM42.9741 50.3171V51.4878H41.8034V50.3171H42.9741ZM41.8034 50.3171V51.4878H40.6326V50.3171H41.8034ZM41.8034 49.1463V50.3171H40.6326V49.1463H41.8034ZM48.8277 49.1463V50.3171H47.657V49.1463H48.8277ZM53.5107 31.5854V30.4146H54.6814V31.5854H53.5107ZM53.5107 32.7561V31.5854H54.6814V32.7561H53.5107ZM53.5107 33.9268V32.7561H54.6814V33.9268H53.5107ZM51.1692 33.9268V32.7561H52.3399V33.9268H51.1692ZM51.1692 32.7561V31.5854H52.3399V32.7561H51.1692ZM51.1692 31.5854V30.4146H52.3399V31.5854H51.1692ZM51.1692 30.4146V29.2439H52.3399V30.4146H51.1692ZM51.1692 29.2439V28.0732H52.3399V29.2439H51.1692ZM51.1692 28.0732V26.9024H52.3399V28.0732H51.1692ZM48.8277 26.9024V25.7317H49.9985V26.9024H48.8277ZM48.8277 28.0732V26.9024H49.9985V28.0732H48.8277ZM48.8277 29.2439V28.0732H49.9985V29.2439H48.8277ZM48.8277 30.4146V29.2439H49.9985V30.4146H48.8277ZM48.8277 31.5854V30.4146H49.9985V31.5854H48.8277ZM48.8277 32.7561V31.5854H49.9985V32.7561H48.8277ZM48.8277 33.9268V32.7561H49.9985V33.9268H48.8277ZM49.9985 33.9268V32.7561H51.1692V33.9268H49.9985ZM49.9985 32.7561V31.5854H51.1692V32.7561H49.9985ZM49.9985 31.5854V30.4146H51.1692V31.5854H49.9985ZM49.9985 30.4146V29.2439H51.1692V30.4146H49.9985ZM49.9985 29.2439V28.0732H51.1692V29.2439H49.9985ZM49.9985 28.0732V26.9024H51.1692V28.0732H49.9985ZM52.3399 29.2439V28.0732H53.5107V29.2439H52.3399ZM52.3399 30.4146V29.2439H53.5107V30.4146H52.3399ZM52.3399 31.5854V30.4146H53.5107V31.5854H52.3399ZM52.3399 32.7561V31.5854H53.5107V32.7561H52.3399ZM52.3399 33.9268V32.7561H53.5107V33.9268H52.3399ZM39.4619 26.9024V25.7317H40.6326V26.9024H39.4619ZM39.4619 28.0732V26.9024H40.6326V28.0732H39.4619ZM39.4619 29.2439V28.0732H40.6326V29.2439H39.4619ZM39.4619 30.4146V29.2439H40.6326V30.4146H39.4619ZM39.4619 31.5854V30.4146H40.6326V31.5854H39.4619ZM39.4619 32.7561V31.5854H40.6326V32.7561H39.4619ZM39.4619 33.9268V32.7561H40.6326V33.9268H39.4619ZM37.1204 33.9268V32.7561H38.2912V33.9268H37.1204ZM37.1204 32.7561V31.5854H38.2912V32.7561H37.1204ZM37.1204 31.5854V30.4146H38.2912V31.5854H37.1204ZM37.1204 30.4146V29.2439H38.2912V30.4146H37.1204ZM37.1204 29.2439V28.0732H38.2912V29.2439H37.1204ZM37.1204 28.0732V26.9024H38.2912V28.0732H37.1204ZM34.779 31.5854V30.4146H35.9497V31.5854H34.779ZM34.779 32.7561V31.5854H35.9497V32.7561H34.779ZM34.779 33.9268V32.7561H35.9497V33.9268H34.779ZM35.9497 33.9268V32.7561H37.1204V33.9268H35.9497ZM35.9497 32.7561V31.5854H37.1204V32.7561H35.9497ZM35.9497 31.5854V30.4146H37.1204V31.5854H35.9497ZM35.9497 30.4146V29.2439H37.1204V30.4146H35.9497ZM35.9497 29.2439V28.0732H37.1204V29.2439H35.9497ZM38.2912 28.0732V26.9024H39.4619V28.0732H38.2912ZM38.2912 29.2439V28.0732H39.4619V29.2439H38.2912ZM38.2912 30.4146V29.2439H39.4619V30.4146H38.2912ZM38.2912 31.5854V30.4146H39.4619V31.5854H38.2912ZM38.2912 32.7561V31.5854H39.4619V32.7561H38.2912ZM38.2912 33.9268V32.7561H39.4619V33.9268H38.2912ZM35.9497 35.0976V36.2683H34.779V35.0976H35.9497ZM37.1204 35.0976V36.2683H35.9497V35.0976H37.1204ZM35.9497 33.9268V35.0976H34.779V33.9268H35.9497ZM39.4619 33.9268V35.0976H38.2912V33.9268H39.4619ZM39.4619 35.0976V36.2683H38.2912V35.0976H39.4619ZM40.6326 35.0976V36.2683H39.4619V35.0976H40.6326ZM40.6326 33.9268V35.0976H39.4619V33.9268H40.6326ZM37.1204 33.9268V35.0976H35.9497V33.9268H37.1204ZM38.2912 33.9268V35.0976H37.1204V33.9268H38.2912ZM38.2912 35.0976V36.2683H37.1204V35.0976H38.2912ZM49.9985 35.0976V36.2683H48.8277V35.0976H49.9985ZM51.1692 35.0976V36.2683H49.9985V35.0976H51.1692ZM49.9985 33.9268V35.0976H48.8277V33.9268H49.9985ZM53.5107 33.9268V35.0976H52.3399V33.9268H53.5107ZM53.5107 35.0976V36.2683H52.3399V35.0976H53.5107ZM54.6814 35.0976V36.2683H53.5107V35.0976H54.6814ZM54.6814 33.9268V35.0976H53.5107V33.9268H54.6814ZM51.1692 33.9268V35.0976H49.9985V33.9268H51.1692ZM52.3399 33.9268V35.0976H51.1692V33.9268H52.3399ZM52.3399 35.0976V36.2683H51.1692V35.0976H52.3399ZM42.9741 49.1463V50.3171H41.8034V49.1463H42.9741ZM45.3155 49.1463V50.3171H44.1448V49.1463H45.3155ZM46.4863 49.1463V50.3171H45.3155V49.1463H46.4863ZM47.657 49.1463V50.3171H46.4863V49.1463H47.657ZM48.8277 47.9756V49.1463H47.657V47.9756H48.8277ZM41.8034 47.9756V49.1463H40.6326V47.9756H41.8034ZM35.9497 29.2439V30.4146H34.779V29.2439H35.9497ZM35.9497 28.0732V29.2439H34.779V28.0732H35.9497ZM35.9497 26.9024V28.0732H34.779V26.9024H35.9497ZM35.9497 25.7317V26.9024H34.779V25.7317H35.9497ZM37.1204 25.7317V26.9024H35.9497V25.7317H37.1204ZM38.2912 25.7317V26.9024H37.1204V25.7317H38.2912ZM39.4619 25.7317V26.9024H38.2912V25.7317H39.4619ZM37.1204 26.9024V28.0732H35.9497V26.9024H37.1204ZM51.1692 25.7317V26.9024H49.9985V25.7317H51.1692ZM52.3399 25.7317V26.9024H51.1692V25.7317H52.3399ZM53.5107 25.7317V26.9024H52.3399V25.7317H53.5107ZM54.6814 25.7317V26.9024H53.5107V25.7317H54.6814ZM54.6814 26.9024V28.0732H53.5107V26.9024H54.6814ZM54.6814 28.0732V29.2439H53.5107V28.0732H54.6814ZM54.6814 29.2439V30.4146H53.5107V29.2439H54.6814ZM53.5107 26.9024V28.0732H52.3399V26.9024H53.5107ZM44.1448 49.1463V50.3171H42.9741V49.1463H44.1448ZM44.1448 50.3171V51.4878H42.9741V50.3171H44.1448ZM44.1448 51.4878V52.6585H42.9741V51.4878H44.1448ZM44.1448 52.6585V53.8293H42.9741V52.6585H44.1448ZM44.1448 53.8293V55H42.9741V53.8293H44.1448ZM60.5122 53.8293V55H59.3415V53.8293H60.5122ZM60.5122 52.6585V53.8293H59.3415V52.6585H60.5122ZM60.5122 51.4878V52.6585H59.3415V51.4878H60.5122ZM60.5122 50.3171V51.4878H59.3415V50.3171H60.5122ZM60.5122 49.1463V50.3171H59.3415V49.1463H60.5122ZM60.5122 47.9756V49.1463H59.3415V47.9756H60.5122ZM60.5122 46.8049V47.9756H59.3415V46.8049H60.5122ZM60.5122 45.6341V46.8049H59.3415V45.6341H60.5122ZM60.5122 44.4634V45.6341H59.3415V44.4634H60.5122ZM60.5122 43.2927V44.4634H59.3415V43.2927H60.5122ZM60.5122 42.122V43.2927H59.3415V42.122H60.5122ZM60.5122 40.9512V42.122H59.3415V40.9512H60.5122ZM60.5122 39.7805V40.9512H59.3415V39.7805H60.5122ZM60.5122 38.6098V39.7805H59.3415V38.6098H60.5122ZM60.5122 37.439V38.6098H59.3415V37.439H60.5122ZM61.6829 37.439V38.6098H60.5122V37.439H61.6829ZM61.6829 38.6098V39.7805H60.5122V38.6098H61.6829ZM61.6829 39.7805V40.9512H60.5122V39.7805H61.6829ZM61.6829 40.9512V42.122H60.5122V40.9512H61.6829ZM61.6829 42.122V43.2927H60.5122V42.122H61.6829ZM61.6829 43.2927V44.4634H60.5122V43.2927H61.6829ZM61.6829 44.4634V45.6341H60.5122V44.4634H61.6829ZM62.8537 45.6341V46.8049H61.6829V45.6341H62.8537ZM62.8537 46.8049V47.9756H61.6829V46.8049H62.8537ZM62.8537 47.9756V49.1463H61.6829V47.9756H62.8537ZM62.8537 49.1463V50.3171H61.6829V49.1463H62.8537ZM62.8537 50.3171V51.4878H61.6829V50.3171H62.8537ZM62.8537 51.4878V52.6585H61.6829V51.4878H62.8537ZM62.8537 52.6585V53.8293H61.6829V52.6585H62.8537ZM62.8537 53.8293V55H61.6829V53.8293H62.8537ZM64.0244 53.8293V55H62.8537V53.8293H64.0244ZM65.1951 53.8293V55H64.0244V53.8293H65.1951ZM65.1951 52.6585V53.8293H64.0244V52.6585H65.1951ZM65.1951 51.4878V52.6585H64.0244V51.4878H65.1951ZM65.1951 50.3171V51.4878H64.0244V50.3171H65.1951ZM65.1951 49.1463V50.3171H64.0244V49.1463H65.1951ZM65.1951 47.9756V49.1463H64.0244V47.9756H65.1951ZM65.1951 46.8049V47.9756H64.0244V46.8049H65.1951ZM65.1951 45.6341V46.8049H64.0244V45.6341H65.1951ZM64.0244 45.6341V46.8049H62.8537V45.6341H64.0244ZM64.0244 44.4634V45.6341H62.8537V44.4634H64.0244ZM64.0244 46.8049V47.9756H62.8537V46.8049H64.0244ZM64.0244 47.9756V49.1463H62.8537V47.9756H64.0244ZM64.0244 49.1463V50.3171H62.8537V49.1463H64.0244ZM64.0244 50.3171V51.4878H62.8537V50.3171H64.0244ZM64.0244 51.4878V52.6585H62.8537V51.4878H64.0244ZM64.0244 52.6585V53.8293H62.8537V52.6585H64.0244ZM61.6829 53.8293V55H60.5122V53.8293H61.6829ZM61.6829 52.6585V53.8293H60.5122V52.6585H61.6829ZM61.6829 51.4878V52.6585H60.5122V51.4878H61.6829ZM61.6829 50.3171V51.4878H60.5122V50.3171H61.6829ZM61.6829 49.1463V50.3171H60.5122V49.1463H61.6829ZM61.6829 47.9756V49.1463H60.5122V47.9756H61.6829ZM61.6829 46.8049V47.9756H60.5122V46.8049H61.6829ZM61.6829 45.6341V46.8049H60.5122V45.6341H61.6829ZM60.5122 25.7317V26.9024H59.3415V25.7317H60.5122ZM60.5122 26.9024V28.0732H59.3415V26.9024H60.5122ZM60.5122 28.0732V29.2439H59.3415V28.0732H60.5122ZM60.5122 29.2439V30.4146H59.3415V29.2439H60.5122ZM60.5122 30.4146V31.5854H59.3415V30.4146H60.5122ZM60.5122 31.5854V32.7561H59.3415V31.5854H60.5122ZM60.5122 32.7561V33.9268H59.3415V32.7561H60.5122ZM60.5122 33.9268V35.0976H59.3415V33.9268H60.5122ZM60.5122 35.0976V36.2683H59.3415V35.0976H60.5122ZM60.5122 36.2683V37.439H59.3415V36.2683H60.5122ZM64.0244 25.7317V26.9024H62.8537V25.7317H64.0244ZM64.0244 26.9024V28.0732H62.8537V26.9024H64.0244ZM64.0244 28.0732V29.2439H62.8537V28.0732H64.0244ZM64.0244 29.2439V30.4146H62.8537V29.2439H64.0244ZM64.0244 30.4146V31.5854H62.8537V30.4146H64.0244ZM64.0244 31.5854V32.7561H62.8537V31.5854H64.0244ZM64.0244 33.9268V35.0976H62.8537V33.9268H64.0244ZM64.0244 35.0976V36.2683H62.8537V35.0976H64.0244ZM64.0244 36.2683V37.439H62.8537V36.2683H64.0244ZM64.0244 37.439V38.6098H62.8537V37.439H64.0244ZM64.0244 38.6098V39.7805H62.8537V38.6098H64.0244ZM64.0244 39.7805V40.9512H62.8537V39.7805H64.0244ZM64.0244 40.9512V42.122H62.8537V40.9512H64.0244ZM65.1951 42.122V43.2927H64.0244V42.122H65.1951ZM65.1951 43.2927V44.4634H64.0244V43.2927H65.1951ZM65.1951 44.4634V45.6341H64.0244V44.4634H65.1951ZM65.1951 40.9512V42.122H64.0244V40.9512H65.1951ZM65.1951 39.7805V40.9512H64.0244V39.7805H65.1951ZM65.1951 38.6098V39.7805H64.0244V38.6098H65.1951ZM65.1951 37.439V38.6098H64.0244V37.439H65.1951ZM65.1951 36.2683V37.439H64.0244V36.2683H65.1951ZM65.1951 35.0976V36.2683H64.0244V35.0976H65.1951ZM65.1951 33.9268V35.0976H64.0244V33.9268H65.1951ZM65.1951 32.7561V33.9268H64.0244V32.7561H65.1951ZM65.1951 31.5854V32.7561H64.0244V31.5854H65.1951ZM65.1951 30.4146V31.5854H64.0244V30.4146H65.1951ZM64.0244 32.7561V33.9268H62.8537V32.7561H64.0244ZM65.1951 29.2439V30.4146H64.0244V29.2439H65.1951ZM65.1951 28.0732V29.2439H64.0244V28.0732H65.1951ZM65.1951 26.9024V28.0732H64.0244V26.9024H65.1951ZM65.1951 25.7317V26.9024H64.0244V25.7317H65.1951ZM62.8537 25.7317V26.9024H61.6829V25.7317H62.8537ZM61.6829 25.7317V26.9024H60.5122V25.7317H61.6829ZM61.6829 26.9024V28.0732H60.5122V26.9024H61.6829ZM62.8537 26.9024V28.0732H61.6829V26.9024H62.8537ZM62.8537 28.0732V29.2439H61.6829V28.0732H62.8537ZM62.8537 29.2439V30.4146H61.6829V29.2439H62.8537ZM62.8537 30.4146V31.5854H61.6829V30.4146H62.8537ZM62.8537 31.5854V32.7561H61.6829V31.5854H62.8537ZM62.8537 32.7561V33.9268H61.6829V32.7561H62.8537ZM62.8537 33.9268V35.0976H61.6829V33.9268H62.8537ZM61.6829 35.0976V36.2683H60.5122V35.0976H61.6829ZM61.6829 36.2683V37.439H60.5122V36.2683H61.6829ZM61.6829 33.9268V35.0976H60.5122V33.9268H61.6829ZM61.6829 32.7561V33.9268H60.5122V32.7561H61.6829ZM61.6829 31.5854V32.7561H60.5122V31.5854H61.6829ZM61.6829 30.4146V31.5854H60.5122V30.4146H61.6829ZM61.6829 29.2439V30.4146H60.5122V29.2439H61.6829ZM61.6829 28.0732V29.2439H60.5122V28.0732H61.6829ZM62.8537 35.0976V36.2683H61.6829V35.0976H62.8537ZM62.8537 36.2683V37.439H61.6829V36.2683H62.8537ZM62.8537 37.439V38.6098H61.6829V37.439H62.8537ZM62.8537 38.6098V39.7805H61.6829V38.6098H62.8537ZM62.8537 39.7805V40.9512H61.6829V39.7805H62.8537ZM62.8537 40.9512V42.122H61.6829V40.9512H62.8537ZM62.8537 42.122V43.2927H61.6829V42.122H62.8537ZM62.8537 43.2927V44.4634H61.6829V43.2927H62.8537ZM62.8537 44.4634V45.6341H61.6829V44.4634H62.8537ZM64.0244 43.2927V44.4634H62.8537V43.2927H64.0244ZM64.0244 42.122V43.2927H62.8537V42.122H64.0244ZM66.3659 25.7317V26.9024H65.1951V25.7317H66.3659ZM67.5366 25.7317V26.9024H66.3659V25.7317H67.5366ZM67.5366 26.9024V28.0732H66.3659V26.9024H67.5366ZM66.3659 26.9024V28.0732H65.1951V26.9024H66.3659ZM66.3659 28.0732V29.2439H65.1951V28.0732H66.3659ZM67.5366 28.0732V29.2439H66.3659V28.0732H67.5366ZM67.5366 29.2439V30.4146H66.3659V29.2439H67.5366ZM66.3659 29.2439V30.4146H65.1951V29.2439H66.3659ZM66.3659 30.4146V31.5854H65.1951V30.4146H66.3659ZM67.5366 30.4146V31.5854H66.3659V30.4146H67.5366ZM66.3659 53.8293V55H65.1951V53.8293H66.3659ZM67.5366 53.8293V55H66.3659V53.8293H67.5366ZM67.5366 52.6585V53.8293H66.3659V52.6585H67.5366ZM67.5366 51.4878V52.6585H66.3659V51.4878H67.5366ZM67.5366 50.3171V51.4878H66.3659V50.3171H67.5366ZM67.5366 49.1463V50.3171H66.3659V49.1463H67.5366ZM66.3659 49.1463V50.3171H65.1951V49.1463H66.3659ZM66.3659 50.3171V51.4878H65.1951V50.3171H66.3659ZM66.3659 51.4878V52.6585H65.1951V51.4878H66.3659ZM66.3659 52.6585V53.8293H65.1951V52.6585H66.3659ZM73.3902 35.0976V36.2683H72.2195V35.0976H73.3902ZM73.3902 33.9268V35.0976H72.2195V33.9268H73.3902ZM73.3902 32.7561V33.9268H72.2195V32.7561H73.3902ZM72.2195 31.5854V32.7561H71.0488V31.5854H72.2195ZM71.0488 30.4146V31.5854H69.878V30.4146H71.0488ZM69.878 30.4146V31.5854H68.7073V30.4146H69.878ZM68.7073 30.4146V31.5854H67.5366V30.4146H68.7073ZM68.7073 25.7317V26.9024H67.5366V25.7317H68.7073ZM69.878 25.7317V26.9024H68.7073V25.7317H69.878ZM71.0488 25.7317V26.9024H69.878V25.7317H71.0488ZM72.2195 25.7317V26.9024H71.0488V25.7317H72.2195ZM72.2195 26.9024V28.0732H71.0488V26.9024H72.2195ZM72.2195 28.0732V29.2439H71.0488V28.0732H72.2195ZM72.2195 29.2439V30.4146H71.0488V29.2439H72.2195ZM71.0488 29.2439V30.4146H69.878V29.2439H71.0488ZM71.0488 28.0732V29.2439H69.878V28.0732H71.0488ZM69.878 28.0732V29.2439H68.7073V28.0732H69.878ZM68.7073 28.0732V29.2439H67.5366V28.0732H68.7073ZM68.7073 26.9024V28.0732H67.5366V26.9024H68.7073ZM69.878 26.9024V28.0732H68.7073V26.9024H69.878ZM71.0488 26.9024V28.0732H69.878V26.9024H71.0488ZM68.7073 29.2439V30.4146H67.5366V29.2439H68.7073ZM69.878 29.2439V30.4146H68.7073V29.2439H69.878ZM72.2195 30.4146V31.5854H71.0488V30.4146H72.2195ZM73.3902 31.5854V32.7561H72.2195V31.5854H73.3902ZM73.3902 30.4146V31.5854H72.2195V30.4146H73.3902ZM73.3902 29.2439V30.4146H72.2195V29.2439H73.3902ZM73.3902 28.0732V29.2439H72.2195V28.0732H73.3902ZM73.3902 26.9024V28.0732H72.2195V26.9024H73.3902ZM73.3902 25.7317V26.9024H72.2195V25.7317H73.3902ZM73.3902 36.2683V37.439H72.2195V36.2683H73.3902ZM73.3902 37.439V38.6098H72.2195V37.439H73.3902ZM73.3902 38.6098V39.7805H72.2195V38.6098H73.3902ZM73.3902 39.7805V40.9512H72.2195V39.7805H73.3902ZM73.3902 40.9512V42.122H72.2195V40.9512H73.3902ZM73.3902 42.122V43.2927H72.2195V42.122H73.3902ZM73.3902 44.4634V45.6341H72.2195V44.4634H73.3902ZM73.3902 43.2927V44.4634H72.2195V43.2927H73.3902ZM73.3902 45.6341V46.8049H72.2195V45.6341H73.3902ZM73.3902 46.8049V47.9756H72.2195V46.8049H73.3902ZM68.7073 49.1463V50.3171H67.5366V49.1463H68.7073ZM69.878 49.1463V50.3171H68.7073V49.1463H69.878ZM71.0488 49.1463V50.3171H69.878V49.1463H71.0488ZM72.2195 47.9756V49.1463H71.0488V47.9756H72.2195ZM73.3902 47.9756V49.1463H72.2195V47.9756H73.3902ZM73.3902 49.1463V50.3171H72.2195V49.1463H73.3902ZM72.2195 49.1463V50.3171H71.0488V49.1463H72.2195ZM73.3902 50.3171V51.4878H72.2195V50.3171H73.3902ZM73.3902 51.4878V52.6585H72.2195V51.4878H73.3902ZM73.3902 52.6585V53.8293H72.2195V52.6585H73.3902ZM73.3902 53.8293V55H72.2195V53.8293H73.3902ZM72.2195 53.8293V55H71.0488V53.8293H72.2195ZM72.2195 52.6585V53.8293H71.0488V52.6585H72.2195ZM71.0488 52.6585V53.8293H69.878V52.6585H71.0488ZM69.878 53.8293V55H68.7073V53.8293H69.878ZM68.7073 53.8293V55H67.5366V53.8293H68.7073ZM71.0488 53.8293V55H69.878V53.8293H71.0488ZM69.878 52.6585V53.8293H68.7073V52.6585H69.878ZM68.7073 52.6585V53.8293H67.5366V52.6585H68.7073ZM68.7073 51.4878V52.6585H67.5366V51.4878H68.7073ZM69.878 51.4878V52.6585H68.7073V51.4878H69.878ZM71.0488 51.4878V52.6585H69.878V51.4878H71.0488ZM72.2195 51.4878V52.6585H71.0488V51.4878H72.2195ZM72.2195 50.3171V51.4878H71.0488V50.3171H72.2195ZM71.0488 50.3171V51.4878H69.878V50.3171H71.0488ZM69.878 50.3171V51.4878H68.7073V50.3171H69.878ZM68.7073 50.3171V51.4878H67.5366V50.3171H68.7073ZM74.561 26.9024V28.0732H73.3902V26.9024H74.561ZM75.7317 26.9024V28.0732H74.561V26.9024H75.7317ZM75.7317 28.0732V29.2439H74.561V28.0732H75.7317ZM76.9024 28.0732V29.2439H75.7317V28.0732H76.9024ZM76.9024 29.2439V30.4146H75.7317V29.2439H76.9024ZM76.9024 30.4146V31.5854H75.7317V30.4146H76.9024ZM78.0732 30.4146V31.5854H76.9024V30.4146H78.0732ZM78.0732 31.5854V32.7561H76.9024V31.5854H78.0732ZM78.0732 32.7561V33.9268H76.9024V32.7561H78.0732ZM78.0732 33.9268V35.0976H76.9024V33.9268H78.0732ZM78.0732 35.0976V36.2683H76.9024V35.0976H78.0732ZM78.0732 36.2683V37.439H76.9024V36.2683H78.0732ZM78.0732 37.439V38.6098H76.9024V37.439H78.0732ZM76.9024 38.6098V39.7805H75.7317V38.6098H76.9024ZM75.7317 39.7805V40.9512H74.561V39.7805H75.7317ZM76.9024 40.9512V42.122H75.7317V40.9512H76.9024ZM78.0732 42.122V43.2927H76.9024V42.122H78.0732ZM74.561 52.6585V53.8293H73.3902V52.6585H74.561ZM75.7317 52.6585V53.8293H74.561V52.6585H75.7317ZM76.9024 51.4878V52.6585H75.7317V51.4878H76.9024ZM78.0732 49.1463V50.3171H76.9024V49.1463H78.0732ZM75.7317 51.4878V52.6585H74.561V51.4878H75.7317ZM75.7317 50.3171V51.4878H74.561V50.3171H75.7317ZM76.9024 50.3171V51.4878H75.7317V50.3171H76.9024ZM78.0732 47.9756V49.1463H76.9024V47.9756H78.0732ZM78.0732 46.8049V47.9756H76.9024V46.8049H78.0732ZM78.0732 45.6341V46.8049H76.9024V45.6341H78.0732ZM78.0732 44.4634V45.6341H76.9024V44.4634H78.0732ZM78.0732 43.2927V44.4634H76.9024V43.2927H78.0732ZM74.561 40.9512V42.122H73.3902V40.9512H74.561ZM75.7317 40.9512V42.122H74.561V40.9512H75.7317ZM75.7317 42.122V43.2927H74.561V42.122H75.7317ZM74.561 42.122V43.2927H73.3902V42.122H74.561ZM76.9024 42.122V43.2927H75.7317V42.122H76.9024ZM76.9024 43.2927V44.4634H75.7317V43.2927H76.9024ZM76.9024 44.4634V45.6341H75.7317V44.4634H76.9024ZM76.9024 45.6341V46.8049H75.7317V45.6341H76.9024ZM76.9024 46.8049V47.9756H75.7317V46.8049H76.9024ZM76.9024 47.9756V49.1463H75.7317V47.9756H76.9024ZM76.9024 49.1463V50.3171H75.7317V49.1463H76.9024ZM75.7317 49.1463V50.3171H74.561V49.1463H75.7317ZM75.7317 47.9756V49.1463H74.561V47.9756H75.7317ZM75.7317 46.8049V47.9756H74.561V46.8049H75.7317ZM75.7317 45.6341V46.8049H74.561V45.6341H75.7317ZM75.7317 44.4634V45.6341H74.561V44.4634H75.7317ZM75.7317 43.2927V44.4634H74.561V43.2927H75.7317ZM74.561 43.2927V44.4634H73.3902V43.2927H74.561ZM74.561 44.4634V45.6341H73.3902V44.4634H74.561ZM74.561 45.6341V46.8049H73.3902V45.6341H74.561ZM74.561 46.8049V47.9756H73.3902V46.8049H74.561ZM74.561 47.9756V49.1463H73.3902V47.9756H74.561ZM74.561 49.1463V50.3171H73.3902V49.1463H74.561ZM74.561 50.3171V51.4878H73.3902V50.3171H74.561ZM74.561 51.4878V52.6585H73.3902V51.4878H74.561ZM74.561 28.0732V29.2439H73.3902V28.0732H74.561ZM74.561 29.2439V30.4146H73.3902V29.2439H74.561ZM74.561 30.4146V31.5854H73.3902V30.4146H74.561ZM74.561 31.5854V32.7561H73.3902V31.5854H74.561ZM74.561 32.7561V33.9268H73.3902V32.7561H74.561ZM74.561 33.9268V35.0976H73.3902V33.9268H74.561ZM74.561 35.0976V36.2683H73.3902V35.0976H74.561ZM74.561 36.2683V37.439H73.3902V36.2683H74.561ZM74.561 37.439V38.6098H73.3902V37.439H74.561ZM74.561 38.6098V39.7805H73.3902V38.6098H74.561ZM74.561 39.7805V40.9512H73.3902V39.7805H74.561ZM75.7317 38.6098V39.7805H74.561V38.6098H75.7317ZM75.7317 37.439V38.6098H74.561V37.439H75.7317ZM75.7317 36.2683V37.439H74.561V36.2683H75.7317ZM75.7317 35.0976V36.2683H74.561V35.0976H75.7317ZM75.7317 33.9268V35.0976H74.561V33.9268H75.7317ZM75.7317 32.7561V33.9268H74.561V32.7561H75.7317ZM75.7317 31.5854V32.7561H74.561V31.5854H75.7317ZM75.7317 30.4146V31.5854H74.561V30.4146H75.7317ZM75.7317 29.2439V30.4146H74.561V29.2439H75.7317ZM76.9024 31.5854V32.7561H75.7317V31.5854H76.9024ZM76.9024 32.7561V33.9268H75.7317V32.7561H76.9024ZM76.9024 33.9268V35.0976H75.7317V33.9268H76.9024ZM76.9024 35.0976V36.2683H75.7317V35.0976H76.9024ZM76.9024 36.2683V37.439H75.7317V36.2683H76.9024ZM76.9024 37.439V38.6098H75.7317V37.439H76.9024ZM78.0732 38.6098V39.7805H76.9024V38.6098H78.0732ZM78.0732 39.7805V40.9512H76.9024V39.7805H78.0732ZM78.0732 40.9512V42.122H76.9024V40.9512H78.0732ZM76.9024 39.7805V40.9512H75.7317V39.7805H76.9024ZM90.9741 25.7317V26.9024H89.8034V25.7317H90.9741ZM90.9741 26.9024V28.0732H89.8034V26.9024H90.9741ZM90.9741 28.0732V29.2439H89.8034V28.0732H90.9741ZM90.9741 29.2439V30.4146H89.8034V29.2439H90.9741ZM90.9741 30.4146V31.5854H89.8034V30.4146H90.9741ZM90.9741 31.5854V32.7561H89.8034V31.5854H90.9741ZM90.9741 32.7561V33.9268H89.8034V32.7561H90.9741ZM89.8034 32.7561V33.9268H88.6326V32.7561H89.8034ZM89.8034 31.5854V32.7561H88.6326V31.5854H89.8034ZM89.8034 33.9268V35.0976H88.6326V33.9268H89.8034ZM89.8034 35.0976V36.2683H88.6326V35.0976H89.8034ZM89.8034 36.2683V37.439H88.6326V36.2683H89.8034ZM89.8034 37.439V38.6098H88.6326V37.439H89.8034ZM88.6326 37.439V38.6098H87.4619V37.439H88.6326ZM88.6326 36.2683V37.439H87.4619V36.2683H88.6326ZM88.6326 38.6098V39.7805H87.4619V38.6098H88.6326ZM88.6326 39.7805V40.9512H87.4619V39.7805H88.6326ZM88.6326 40.9512V42.122H87.4619V40.9512H88.6326ZM88.6326 42.122V43.2927H87.4619V42.122H88.6326ZM87.4619 42.122V43.2927H86.2912V42.122H87.4619ZM87.4619 40.9512V42.122H86.2912V40.9512H87.4619ZM87.4619 43.2927V44.4634H86.2912V43.2927H87.4619ZM87.4619 44.4634V45.6341H86.2912V44.4634H87.4619ZM87.4619 45.6341V46.8049H86.2912V45.6341H87.4619ZM87.4619 46.8049V47.9756H86.2912V46.8049H87.4619ZM87.4619 47.9756V49.1463H86.2912V47.9756H87.4619ZM86.2912 46.8049V47.9756H85.1204V46.8049H86.2912ZM86.2912 47.9756V49.1463H85.1204V47.9756H86.2912ZM86.2912 49.1463V50.3171H85.1204V49.1463H86.2912ZM86.2912 45.6341V46.8049H85.1204V45.6341H86.2912ZM86.2912 50.3171V51.4878H85.1204V50.3171H86.2912ZM85.1204 50.3171V51.4878H83.9497V50.3171H85.1204ZM85.1204 51.4878V52.6585H83.9497V51.4878H85.1204ZM85.1204 52.6585V53.8293H83.9497V52.6585H85.1204ZM85.1204 53.8293V55H83.9497V53.8293H85.1204ZM85.1204 55V56.1707H83.9497V55H85.1204ZM85.1204 56.1707V57.3415H83.9497V56.1707H85.1204ZM83.9497 56.1707V57.3415H82.779V56.1707H83.9497ZM83.9497 55V56.1707H82.779V55H83.9497ZM83.9497 57.3415V58.5122H82.779V57.3415H83.9497ZM83.9497 58.5122V59.6829H82.779V58.5122H83.9497ZM83.9497 59.6829V60.8537H82.779V59.6829H83.9497ZM85.1204 59.6829V60.8537H83.9497V59.6829H85.1204ZM86.2912 59.6829V60.8537H85.1204V59.6829H86.2912ZM86.2912 58.5122V59.6829H85.1204V58.5122H86.2912ZM87.4619 58.5122V59.6829H86.2912V58.5122H87.4619ZM88.6326 58.5122V59.6829H87.4619V58.5122H88.6326ZM88.6326 59.6829V60.8537H87.4619V59.6829H88.6326ZM87.4619 59.6829V60.8537H86.2912V59.6829H87.4619ZM85.1204 58.5122V59.6829H83.9497V58.5122H85.1204ZM87.4619 57.3415V58.5122H86.2912V57.3415H87.4619ZM88.6326 57.3415V58.5122H87.4619V57.3415H88.6326ZM88.6326 56.1707V57.3415H87.4619V56.1707H88.6326ZM88.6326 55V56.1707H87.4619V55H88.6326ZM88.6326 53.8293V55H87.4619V53.8293H88.6326ZM87.4619 53.8293V55H86.2912V53.8293H87.4619ZM87.4619 55V56.1707H86.2912V55H87.4619ZM86.2912 56.1707V57.3415H85.1204V56.1707H86.2912ZM86.2912 57.3415V58.5122H85.1204V57.3415H86.2912ZM85.1204 57.3415V58.5122H83.9497V57.3415H85.1204ZM87.4619 56.1707V57.3415H86.2912V56.1707H87.4619ZM89.8034 53.8293V55H88.6326V53.8293H89.8034ZM89.8034 52.6585V53.8293H88.6326V52.6585H89.8034ZM89.8034 51.4878V52.6585H88.6326V51.4878H89.8034ZM89.8034 50.3171V51.4878H88.6326V50.3171H89.8034ZM89.8034 49.1463V50.3171H88.6326V49.1463H89.8034ZM90.9741 49.1463V50.3171H89.8034V49.1463H90.9741ZM90.9741 47.9756V49.1463H89.8034V47.9756H90.9741ZM90.9741 46.8049V47.9756H89.8034V46.8049H90.9741ZM90.9741 45.6341V46.8049H89.8034V45.6341H90.9741ZM90.9741 44.4634V45.6341H89.8034V44.4634H90.9741ZM90.9741 43.2927V44.4634H89.8034V43.2927H90.9741ZM92.1448 43.2927V44.4634H90.9741V43.2927H92.1448ZM92.1448 44.4634V45.6341H90.9741V44.4634H92.1448ZM92.1448 42.122V43.2927H90.9741V42.122H92.1448ZM92.1448 40.9512V42.122H90.9741V40.9512H92.1448ZM92.1448 39.7805V40.9512H90.9741V39.7805H92.1448ZM92.1448 38.6098V39.7805H90.9741V38.6098H92.1448ZM93.3155 38.6098V39.7805H92.1448V38.6098H93.3155ZM93.3155 39.7805V40.9512H92.1448V39.7805H93.3155ZM93.3155 37.439V38.6098H92.1448V37.439H93.3155ZM93.3155 36.2683V37.439H92.1448V36.2683H93.3155ZM93.3155 35.0976V36.2683H92.1448V35.0976H93.3155ZM94.4863 35.0976V36.2683H93.3155V35.0976H94.4863ZM94.4863 33.9268V35.0976H93.3155V33.9268H94.4863ZM94.4863 32.7561V33.9268H93.3155V32.7561H94.4863ZM94.4863 31.5854V32.7561H93.3155V31.5854H94.4863ZM94.4863 30.4146V31.5854H93.3155V30.4146H94.4863ZM95.657 29.2439V30.4146H94.4863V29.2439H95.657ZM95.657 30.4146V31.5854H94.4863V30.4146H95.657ZM95.657 28.0732V29.2439H94.4863V28.0732H95.657ZM95.657 26.9024V28.0732H94.4863V26.9024H95.657ZM95.657 25.7317V26.9024H94.4863V25.7317H95.657ZM94.4863 25.7317V26.9024H93.3155V25.7317H94.4863ZM93.3155 25.7317V26.9024H92.1448V25.7317H93.3155ZM92.1448 25.7317V26.9024H90.9741V25.7317H92.1448ZM92.1448 26.9024V28.0732H90.9741V26.9024H92.1448ZM93.3155 26.9024V28.0732H92.1448V26.9024H93.3155ZM94.4863 26.9024V28.0732H93.3155V26.9024H94.4863ZM94.4863 28.0732V29.2439H93.3155V28.0732H94.4863ZM94.4863 29.2439V30.4146H93.3155V29.2439H94.4863ZM93.3155 29.2439V30.4146H92.1448V29.2439H93.3155ZM93.3155 28.0732V29.2439H92.1448V28.0732H93.3155ZM92.1448 28.0732V29.2439H90.9741V28.0732H92.1448ZM92.1448 29.2439V30.4146H90.9741V29.2439H92.1448ZM92.1448 30.4146V31.5854H90.9741V30.4146H92.1448ZM92.1448 31.5854V32.7561H90.9741V31.5854H92.1448ZM92.1448 32.7561V33.9268H90.9741V32.7561H92.1448ZM92.1448 33.9268V35.0976H90.9741V33.9268H92.1448ZM93.3155 33.9268V35.0976H92.1448V33.9268H93.3155ZM93.3155 32.7561V33.9268H92.1448V32.7561H93.3155ZM93.3155 30.4146V31.5854H92.1448V30.4146H93.3155ZM93.3155 31.5854V32.7561H92.1448V31.5854H93.3155ZM92.1448 35.0976V36.2683H90.9741V35.0976H92.1448ZM92.1448 36.2683V37.439H90.9741V36.2683H92.1448ZM92.1448 37.439V38.6098H90.9741V37.439H92.1448ZM90.9741 37.439V38.6098H89.8034V37.439H90.9741ZM90.9741 36.2683V37.439H89.8034V36.2683H90.9741ZM90.9741 35.0976V36.2683H89.8034V35.0976H90.9741ZM90.9741 33.9268V35.0976H89.8034V33.9268H90.9741ZM90.9741 38.6098V39.7805H89.8034V38.6098H90.9741ZM90.9741 39.7805V40.9512H89.8034V39.7805H90.9741ZM90.9741 40.9512V42.122H89.8034V40.9512H90.9741ZM90.9741 42.122V43.2927H89.8034V42.122H90.9741ZM89.8034 43.2927V44.4634H88.6326V43.2927H89.8034ZM89.8034 42.122V43.2927H88.6326V42.122H89.8034ZM89.8034 40.9512V42.122H88.6326V40.9512H89.8034ZM89.8034 39.7805V40.9512H88.6326V39.7805H89.8034ZM89.8034 38.6098V39.7805H88.6326V38.6098H89.8034ZM89.8034 44.4634V45.6341H88.6326V44.4634H89.8034ZM89.8034 45.6341V46.8049H88.6326V45.6341H89.8034ZM88.6326 46.8049V47.9756H87.4619V46.8049H88.6326ZM88.6326 47.9756V49.1463H87.4619V47.9756H88.6326ZM89.8034 47.9756V49.1463H88.6326V47.9756H89.8034ZM89.8034 46.8049V47.9756H88.6326V46.8049H89.8034ZM88.6326 45.6341V46.8049H87.4619V45.6341H88.6326ZM88.6326 44.4634V45.6341H87.4619V44.4634H88.6326ZM88.6326 43.2927V44.4634H87.4619V43.2927H88.6326ZM88.6326 49.1463V50.3171H87.4619V49.1463H88.6326ZM88.6326 50.3171V51.4878H87.4619V50.3171H88.6326ZM88.6326 51.4878V52.6585H87.4619V51.4878H88.6326ZM87.4619 52.6585V53.8293H86.2912V52.6585H87.4619ZM87.4619 51.4878V52.6585H86.2912V51.4878H87.4619ZM87.4619 50.3171V51.4878H86.2912V50.3171H87.4619ZM88.6326 52.6585V53.8293H87.4619V52.6585H88.6326ZM87.4619 49.1463V50.3171H86.2912V49.1463H87.4619ZM86.2912 51.4878V52.6585H85.1204V51.4878H86.2912ZM86.2912 52.6585V53.8293H85.1204V52.6585H86.2912ZM86.2912 53.8293V55H85.1204V53.8293H86.2912ZM86.2912 55V56.1707H85.1204V55H86.2912ZM101.528 30.4146V31.5854H100.357V30.4146H101.528ZM102.699 30.4146V31.5854H101.528V30.4146H102.699ZM102.699 31.5854V32.7561H101.528V31.5854H102.699ZM102.699 32.7561V33.9268H101.528V32.7561H102.699ZM102.699 33.9268V35.0976H101.528V33.9268H102.699ZM101.528 33.9268V35.0976H100.357V33.9268H101.528ZM101.528 35.0976V36.2683H100.357V35.0976H101.528ZM101.528 32.7561V33.9268H100.357V32.7561H101.528ZM101.528 31.5854V32.7561H100.357V31.5854H101.528ZM102.699 35.0976V36.2683H101.528V35.0976H102.699ZM103.869 35.0976V36.2683H102.699V35.0976H103.869ZM103.869 33.9268V35.0976H102.699V33.9268H103.869ZM103.869 32.7561V33.9268H102.699V32.7561H103.869ZM103.869 31.5854V32.7561H102.699V31.5854H103.869ZM105.04 31.5854V32.7561H103.869V31.5854H105.04ZM105.04 32.7561V33.9268H103.869V32.7561H105.04ZM105.04 33.9268V35.0976H103.869V33.9268H105.04ZM105.04 35.0976V36.2683H103.869V35.0976H105.04ZM105.04 36.2683V37.439H103.869V36.2683H105.04ZM103.869 36.2683V37.439H102.699V36.2683H103.869ZM106.211 35.0976V36.2683H105.04V35.0976H106.211ZM106.211 33.9268V35.0976H105.04V33.9268H106.211ZM106.211 32.7561V33.9268H105.04V32.7561H106.211ZM107.381 32.7561V33.9268H106.211V32.7561H107.381ZM107.381 33.9268V35.0976H106.211V33.9268H107.381ZM107.381 35.0976V36.2683H106.211V35.0976H107.381ZM107.381 36.2683V37.439H106.211V36.2683H107.381ZM106.211 36.2683V37.439H105.04V36.2683H106.211ZM106.211 37.439V38.6098H105.04V37.439H106.211ZM107.381 37.439V38.6098H106.211V37.439H107.381ZM108.552 35.0976V36.2683H107.381V35.0976H108.552ZM108.552 33.9268V35.0976H107.381V33.9268H108.552ZM109.723 33.9268V35.0976H108.552V33.9268H109.723ZM109.723 35.0976V36.2683H108.552V35.0976H109.723ZM109.723 36.2683V37.439H108.552V36.2683H109.723ZM109.723 37.439V38.6098H108.552V37.439H109.723ZM109.723 38.6098V39.7805H108.552V38.6098H109.723ZM108.552 38.6098V39.7805H107.381V38.6098H108.552ZM108.552 37.439V38.6098H107.381V37.439H108.552ZM108.552 36.2683V37.439H107.381V36.2683H108.552ZM110.894 37.439V38.6098H109.723V37.439H110.894ZM110.894 38.6098V39.7805H109.723V38.6098H110.894ZM112.064 38.6098V39.7805H110.894V38.6098H112.064ZM112.064 37.439V38.6098H110.894V37.439H112.064ZM112.064 36.2683V37.439H110.894V36.2683H112.064ZM112.064 35.0976V36.2683H110.894V35.0976H112.064ZM110.894 35.0976V36.2683H109.723V35.0976H110.894ZM110.894 36.2683V37.439H109.723V36.2683H110.894ZM110.894 39.7805V40.9512H109.723V39.7805H110.894ZM110.894 40.9512V42.122H109.723V40.9512H110.894ZM112.064 40.9512V42.122H110.894V40.9512H112.064ZM112.064 42.122V43.2927H110.894V42.122H112.064ZM112.064 39.7805V40.9512H110.894V39.7805H112.064ZM110.894 42.122V43.2927H109.723V42.122H110.894ZM109.723 42.122V43.2927H108.552V42.122H109.723ZM106.211 46.8049V47.9756H105.04V46.8049H106.211ZM107.381 46.8049V47.9756H106.211V46.8049H107.381ZM107.381 45.6341V46.8049H106.211V45.6341H107.381ZM108.552 44.4634V45.6341H107.381V44.4634H108.552ZM108.552 43.2927V44.4634H107.381V43.2927H108.552ZM108.552 42.122V43.2927H107.381V42.122H108.552ZM107.381 44.4634V45.6341H106.211V44.4634H107.381ZM106.211 45.6341V46.8049H105.04V45.6341H106.211ZM106.211 44.4634V45.6341H105.04V44.4634H106.211ZM106.211 43.2927V44.4634H105.04V43.2927H106.211ZM107.381 43.2927V44.4634H106.211V43.2927H107.381ZM105.04 45.6341V46.8049H103.869V45.6341H105.04ZM105.04 44.4634V45.6341H103.869V44.4634H105.04ZM103.869 44.4634V45.6341H102.699V44.4634H103.869ZM103.869 45.6341V46.8049H102.699V45.6341H103.869ZM102.699 45.6341V46.8049H101.528V45.6341H102.699ZM102.699 46.8049V47.9756H101.528V46.8049H102.699ZM101.528 46.8049V47.9756H100.357V46.8049H101.528ZM101.528 45.6341V46.8049H100.357V45.6341H101.528ZM101.528 47.9756V49.1463H100.357V47.9756H101.528ZM101.528 49.1463V50.3171H100.357V49.1463H101.528ZM102.699 49.1463V50.3171H101.528V49.1463H102.699ZM102.699 50.3171V51.4878H101.528V50.3171H102.699ZM101.528 50.3171V51.4878H100.357V50.3171H101.528ZM103.869 49.1463V50.3171H102.699V49.1463H103.869ZM105.04 49.1463V50.3171H103.869V49.1463H105.04ZM105.04 47.9756V49.1463H103.869V47.9756H105.04ZM103.869 47.9756V49.1463H102.699V47.9756H103.869ZM102.699 47.9756V49.1463H101.528V47.9756H102.699ZM103.869 46.8049V47.9756H102.699V46.8049H103.869ZM106.211 47.9756V49.1463H105.04V47.9756H106.211ZM105.04 46.8049V47.9756H103.869V46.8049H105.04ZM107.381 47.9756V49.1463H106.211V47.9756H107.381ZM108.552 46.8049V47.9756H107.381V46.8049H108.552ZM109.723 46.8049V47.9756H108.552V46.8049H109.723ZM109.723 45.6341V46.8049H108.552V45.6341H109.723ZM108.552 45.6341V46.8049H107.381V45.6341H108.552ZM110.894 45.6341V46.8049H109.723V45.6341H110.894ZM112.064 45.6341V46.8049H110.894V45.6341H112.064ZM112.064 44.4634V45.6341H110.894V44.4634H112.064ZM112.064 43.2927V44.4634H110.894V43.2927H112.064ZM110.894 43.2927V44.4634H109.723V43.2927H110.894ZM109.723 43.2927V44.4634H108.552V43.2927H109.723ZM109.723 44.4634V45.6341H108.552V44.4634H109.723ZM110.894 44.4634V45.6341H109.723V44.4634H110.894ZM113.235 36.2683V37.439H112.064V36.2683H113.235ZM114.406 36.2683V37.439H113.235V36.2683H114.406ZM114.406 37.439V38.6098H113.235V37.439H114.406ZM115.577 37.439V38.6098H114.406V37.439H115.577ZM116.747 37.439V38.6098H115.577V37.439H116.747ZM116.747 38.6098V39.7805H115.577V38.6098H116.747ZM117.918 38.6098V39.7805H116.747V38.6098H117.918ZM119.089 38.6098V39.7805H117.918V38.6098H119.089ZM119.089 39.7805V40.9512H117.918V39.7805H119.089ZM119.089 40.9512V42.122H117.918V40.9512H119.089ZM119.089 42.122V43.2927H117.918V42.122H119.089ZM117.918 42.122V43.2927H116.747V42.122H117.918ZM117.918 40.9512V42.122H116.747V40.9512H117.918ZM117.918 39.7805V40.9512H116.747V39.7805H117.918ZM116.747 40.9512V42.122H115.577V40.9512H116.747ZM116.747 42.122V43.2927H115.577V42.122H116.747ZM116.747 43.2927V44.4634H115.577V43.2927H116.747ZM115.577 43.2927V44.4634H114.406V43.2927H115.577ZM114.406 43.2927V44.4634H113.235V43.2927H114.406ZM114.406 44.4634V45.6341H113.235V44.4634H114.406ZM113.235 44.4634V45.6341H112.064V44.4634H113.235ZM113.235 43.2927V44.4634H112.064V43.2927H113.235ZM113.235 42.122V43.2927H112.064V42.122H113.235ZM114.406 42.122V43.2927H113.235V42.122H114.406ZM115.577 42.122V43.2927H114.406V42.122H115.577ZM115.577 40.9512V42.122H114.406V40.9512H115.577ZM116.747 39.7805V40.9512H115.577V39.7805H116.747ZM115.577 39.7805V40.9512H114.406V39.7805H115.577ZM114.406 39.7805V40.9512H113.235V39.7805H114.406ZM114.406 40.9512V42.122H113.235V40.9512H114.406ZM113.235 39.7805V40.9512H112.064V39.7805H113.235ZM113.235 38.6098V39.7805H112.064V38.6098H113.235ZM113.235 37.439V38.6098H112.064V37.439H113.235ZM114.406 38.6098V39.7805H113.235V38.6098H114.406ZM115.577 38.6098V39.7805H114.406V38.6098H115.577ZM113.235 40.9512V42.122H112.064V40.9512H113.235Z" fill="white"/>
</svg>
